<?xml version="1.0" standalone="no"?>
<!DOCTYPE svg PUBLIC "-//W3C//DTD SVG 20010904//EN"
 "http://www.w3.org/TR/2001/REC-SVG-20010904/DTD/svg10.dtd">
<svg version="1.0" xmlns="http://www.w3.org/2000/svg"
 width="1066.000000pt" height="1280.000000pt" viewBox="0 0 1066.000000 1280.000000"
 preserveAspectRatio="xMidYMid meet">
<metadata>
Created by potrace 1.15, written by Peter Selinger 2001-2017
</metadata>
<g transform="translate(0.000000,1280.000000) scale(0.100000,-0.100000)"
fill="#000000" stroke="none">
<path d="M4820 12544 c-8 -2 -121 -8 -250 -14 -1154 -51 -2067 -252 -2615
-575 -243 -142 -422 -324 -484 -490 -13 -35 -30 -131 -46 -258 -111 -923 -53
-1900 162 -2727 42 -164 16 -101 278 -650 279 -584 318 -666 370 -775 23 -49
73 -153 110 -230 71 -147 132 -277 195 -410 21 -44 76 -160 124 -259 47 -98
86 -179 86 -181 0 -1 43 -92 96 -201 53 -109 111 -230 129 -269 18 -38 63
-133 100 -210 37 -77 84 -176 105 -220 21 -44 66 -138 100 -210 34 -71 84
-175 110 -230 26 -55 73 -154 105 -220 31 -66 79 -165 105 -220 26 -55 73
-154 105 -220 31 -66 77 -160 100 -210 24 -49 73 -153 110 -230 68 -142 136
-284 205 -430 21 -44 68 -143 105 -220 37 -77 82 -171 100 -210 18 -38 76
-160 129 -269 53 -109 96 -200 96 -202 0 -1 47 -100 105 -220 58 -119 105
-218 105 -219 0 -1 34 -74 76 -161 42 -88 96 -199 119 -249 56 -117 163 -342
204 -427 33 -68 56 -84 78 -55 11 13 103 190 298 572 145 284 303 593 445 870
54 105 153 298 220 430 149 292 282 551 654 1278 57 111 163 319 236 462 73
143 172 337 220 430 48 94 143 278 210 410 162 317 320 627 440 860 54 105
152 297 219 428 277 543 367 719 436 852 448 869 465 908 549 1290 58 263 82
443 111 828 21 265 16 851 -9 1162 -21 267 -62 622 -77 665 -33 94 -127 221
-231 312 -613 537 -1936 832 -3707 827 -229 -1 -423 -3 -431 -5z"/>
</g>
</svg>
